/* XPM */
static const char * zero_xpm[] = {
"16 22 3 1",
" 	c None",
".	c #FEFEFE",
"+	c #FFFFFF",
"     .....      ",
"   .+++++++.    ",
"  .+++++++++.   ",
"  ++..   ..++.  ",
" .++       ++.  ",
" ++.       .++  ",
".++.        ++. ",
".++         ++. ",
".++         .+. ",
".++         .++ ",
".+.         .++ ",
".+.         .++ ",
".++         .++ ",
".++         .+. ",
".++         ++. ",
".++.        ++. ",
" ++.       .++  ",
" .++       ++.  ",
"  ++..   ..++.  ",
"  .+++++++++.   ",
"   .+++++++.    ",
"     .....      "};
