/* XPM */
static const char * one_xpm[] = {
"14 22 3 1",
" 	c None",
".	c #FEFEFE",
"+	c #FFFFFF",
"   ...++      ",
".+++++++      ",
".+++++++      ",
"...   ++      ",
"      ++      ",
"      ++      ",
"      ++      ",
"      ++      ",
"      ++      ",
"      ++      ",
"      ++      ",
"      ++      ",
"      ++      ",
"      ++      ",
"      ++      ",
"      ++      ",
"      ++      ",
"      ++      ",
"      ++      ",
" ++++++++++++ ",
" ++++++++++++ ",
" ++++++++++++ "};
