/* XPM */
static const char * four_xpm[] = {
"17 22 3 1",
" 	c None",
".	c #FEFEFE",
"+	c #FFFFFF",
"         .+++    ",
"         ++++    ",
"        .+.++    ",
"       .+..++    ",
"       +. .++    ",
"      .+  .++    ",
"     .+.  .++    ",
"     +.   .++    ",
"    .+    .++    ",
"   .+.    .++    ",
"   ..     .++    ",
"  .+.     .++    ",
" .+.      .++    ",
" ..       .++    ",
".+++++++++++++++ ",
".+++++++++++++++ ",
".+++++++++++++++ ",
"          .++    ",
"          .++    ",
"          .++    ",
"          .++    ",
"          .++    "};
