/* XPM */
static const char * six_xpm[] = {
"16 22 3 1",
" 	c None",
".	c #FEFEFE",
"+	c #FFFFFF",
"      ......    ",
"    .++++++++.  ",
"   .+++++++++.  ",
"  .+++.     ..  ",
"  ++.           ",
" .++.           ",
" ++.            ",
".++.            ",
".++   .....     ",
".++ .+++++++.   ",
".++.+++++++++.  ",
".++...    .+++  ",
".+++       .++. ",
".++.        .++ ",
".++.        .++ ",
" ++.        .++ ",
" ++.        .+. ",
" .++       .++. ",
"  ++..    .+++  ",
"  .++++++++++.  ",
"   .++++++++.   ",
"     ......     "};
