/* XPM */
static const char * seven_xpm[] = {
"15 22 3 1",
" 	c None",
".	c #FEFEFE",
"+	c #FFFFFF",
".+++++++++++++.",
".+++++++++++++ ",
".++++++++++++. ",
"           ++. ",
"          .++  ",
"          .+.  ",
"          ++.  ",
"         .++   ",
"         ++.   ",
"        .++    ",
"        .+.    ",
"        ++.    ",
"       .++     ",
"       ++.     ",
"      .++      ",
"      .+.      ",
"      ++.      ",
"     .++       ",
"     .+.       ",
"    .++.       ",
"    .++        ",
"    ++.        "};
