/* XPM */
static const char *mouse_pointer_xpm[] = {
"12 19 2 1",
" 	c None",
".	c #FFFFFF",
".           ",
"..          ",
"...         ",
"....        ",
".....       ",
"......      ",
".......     ",
"........    ",
".........   ",
"..........  ",
"........... ",
"............",
"........    ",
"........    ",
".... ...    ",
"...  ....   ",
"..   ....   ",
"      ....  ",
"      ..    "};
